<svg xmlns="http://www.w3.org/2000/svg" viewBox="0 0 60 60" width="60" height="60">
  <rect width="60" height="60" rx="10" fill="#040d21"/>
  <line x1="16" y1="52" x2="16" y2="12" stroke="#93c5fd" stroke-width="1.8" stroke-linecap="round" opacity=".2"/>
  <line x1="24" y1="52" x2="24" y2="5"  stroke="#93c5fd" stroke-width="1.8" stroke-linecap="round" opacity=".2"/>
  <line x1="30" y1="52" x2="30" y2="5"  stroke="#93c5fd" stroke-width="1.8" stroke-linecap="round" opacity=".2"/>
  <line x1="36" y1="52" x2="36" y2="5"  stroke="#93c5fd" stroke-width="1.8" stroke-linecap="round" opacity=".2"/>
  <line x1="44" y1="52" x2="44" y2="12" stroke="#93c5fd" stroke-width="1.8" stroke-linecap="round" opacity=".2"/>
  <line x1="10" y1="42" x2="50" y2="42" stroke="#93c5fd" stroke-width="1.5" stroke-linecap="round" opacity=".13"/>
  <line x1="10" y1="30" x2="50" y2="30" stroke="#93c5fd" stroke-width="1.5" stroke-linecap="round" opacity=".13"/>
  <path d="M16 51 L27 5.5 L30 2 L33 5.5 L44 51" fill="none" stroke="#3b82f6" stroke-width="5" stroke-linejoin="round" stroke-linecap="round"/>
  <path d="M20 30 L40 30" fill="none" stroke="#3b82f6" stroke-width="5" stroke-linecap="round"/>
  <path d="M22 48 L28 14 L32 14 L38 48Z" fill="#040d21"/>
  <circle cx="30" cy="2" r="3.2" fill="#60a5fa"/>
  <circle cx="24" cy="42" r="2" fill="#3b82f6" opacity=".8"/>
  <circle cx="30" cy="30" r="2" fill="#3b82f6" opacity=".8"/>
  <circle cx="36" cy="42" r="2" fill="#3b82f6" opacity=".8"/>
  <circle cx="16" cy="30" r="2" fill="#3b82f6" opacity=".5"/>
  <circle cx="44" cy="30" r="2" fill="#3b82f6" opacity=".5"/>
</svg>
