<svg xmlns="http://www.w3.org/2000/svg" viewBox="0 0 220 60" width="220" height="60">
  <line x1="22" y1="54" x2="22" y2="10" stroke="#93c5fd" stroke-width="2" stroke-linecap="round" opacity=".2"/>
  <line x1="32" y1="54" x2="32" y2="3"  stroke="#93c5fd" stroke-width="2" stroke-linecap="round" opacity=".2"/>
  <line x1="42" y1="54" x2="42" y2="3"  stroke="#93c5fd" stroke-width="2" stroke-linecap="round" opacity=".2"/>
  <line x1="52" y1="54" x2="52" y2="3"  stroke="#93c5fd" stroke-width="2" stroke-linecap="round" opacity=".2"/>
  <line x1="62" y1="54" x2="62" y2="10" stroke="#93c5fd" stroke-width="2" stroke-linecap="round" opacity=".2"/>
  <line x1="15" y1="44" x2="69" y2="44" stroke="#93c5fd" stroke-width="1.5" stroke-linecap="round" opacity=".13"/>
  <line x1="15" y1="32" x2="69" y2="32" stroke="#93c5fd" stroke-width="1.5" stroke-linecap="round" opacity=".13"/>
  <path d="M22 53 L37 3.5 L42 0 L47 3.5 L62 53" fill="none" stroke="#3b82f6" stroke-width="5.5" stroke-linejoin="round" stroke-linecap="round"/>
  <path d="M28 32 L56 32" fill="none" stroke="#3b82f6" stroke-width="5.5" stroke-linecap="round"/>
  <path d="M31 50 L40 14 L44 14 L53 50Z" fill="#040d21"/>
  <circle cx="42" cy="0" r="3.5" fill="#60a5fa"/>
  <circle cx="32" cy="44" r="2" fill="#3b82f6" opacity=".8"/>
  <circle cx="42" cy="32" r="2" fill="#3b82f6" opacity=".8"/>
  <circle cx="52" cy="44" r="2" fill="#3b82f6" opacity=".8"/>
  <circle cx="22" cy="32" r="2" fill="#3b82f6" opacity=".5"/>
  <circle cx="62" cy="32" r="2" fill="#3b82f6" opacity=".5"/>
  <text x="80" y="24" font-family="'IBM Plex Sans',system-ui,sans-serif" font-weight="700" font-size="20" fill="#ffffff" letter-spacing="4.5">ARZOO</text>
  <line x1="80" y1="31" x2="215" y2="31" stroke="#3b82f6" stroke-width="1.2" stroke-linecap="round"/>
  <text x="80" y="45" font-family="'IBM Plex Sans',system-ui,sans-serif" font-weight="300" font-size="10" fill="#93c5fd" letter-spacing="4">TEXTILE MILLS</text>
  <text x="80" y="57" font-family="'IBM Plex Sans',system-ui,sans-serif" font-weight="300" font-size="7.5" fill="#1e3a5f" letter-spacing="2.5">EST. 1930  ·  FAISALABAD</text>
</svg>
